<svg width="24" height="24" viewBox="0 0 24 24" fill="none" xmlns="http://www.w3.org/2000/svg">
<path d="M17.8924 15.0639C18.5962 13.8729 19 12.4836 19 11C19 6.58172 15.4183 3 11 3C6.58172 3 3 6.58172 3 11C3 15.4183 6.58172 19 11 19C12.4836 19 13.8729 18.5961 15.064 17.8923L17.5858 20.4142C18.3669 21.1953 19.6332 21.1953 20.4143 20.4142C21.1953 19.6332 21.1953 18.3668 20.4143 17.5858L17.8924 15.0639ZM11 16C8.23858 16 6 13.7614 6 11C6 8.23858 8.23858 6 11 6C13.7614 6 16 8.23858 16 11C16 13.7614 13.7614 16 11 16Z" fill="white"/>
</svg>

